<svg width="48" height="48" viewBox="0 0 48 48" fill="none" xmlns="http://www.w3.org/2000/svg">
<g opacity="0.9">
<path d="M12.729 29.254C12.729 29.398 12.747 29.542 12.765 29.686C12.783 29.902 12.747 30.118 12.747 30.334C12.765 30.586 12.657 30.712 12.369 30.766C12.189 30.784 12.009 30.784 11.829 30.766C11.757 30.766 11.685 30.766 11.595 30.748C11.541 30.748 11.451 30.748 11.469 30.64C11.487 30.604 11.451 30.604 11.433 30.604C11.289 30.514 11.217 30.388 11.199 30.208C11.163 29.884 11.217 29.578 11.181 29.254C11.199 28.93 11.163 28.606 11.181 28.282C11.199 28.084 11.163 27.904 11.145 27.706C11.127 27.382 11.091 27.058 11.127 26.716C11.127 26.662 11.109 26.59 11.109 26.536C11.073 26.338 11.019 26.14 11.055 25.924C11.073 25.888 11.055 25.852 11.055 25.816C10.983 25.582 11.001 25.348 10.983 25.096C10.983 25.006 10.983 24.916 11.055 24.844C11.091 24.79 11.109 24.736 11.037 24.7C10.947 24.628 10.929 24.538 10.929 24.448C10.947 24.304 10.929 24.142 10.929 23.998C10.947 23.854 10.893 23.692 10.893 23.548C10.893 23.278 10.857 23.008 10.947 22.738C10.965 22.666 10.965 22.576 10.911 22.504C10.839 22.396 10.821 22.27 10.839 22.144C10.857 22.036 10.839 21.928 10.839 21.82C10.821 21.658 10.839 21.496 10.821 21.334C10.803 21.244 10.911 21.19 10.893 21.118C10.875 21.028 10.803 20.974 10.821 20.884C10.821 20.776 10.821 20.686 10.821 20.578C10.821 20.524 10.821 20.452 10.875 20.416C10.911 20.38 10.911 20.362 10.893 20.308C10.857 20.218 10.839 20.11 10.857 20.02C10.875 19.984 10.893 19.948 10.857 19.93C10.803 19.912 10.821 19.966 10.803 20.002C10.803 20.002 10.803 20.02 10.785 20.038C10.749 20.146 10.731 20.164 10.641 20.11C10.587 20.074 10.569 20.074 10.515 20.128C10.389 20.254 10.191 20.29 10.029 20.326C9.99298 20.344 9.95698 20.344 9.92098 20.344C9.70498 20.398 9.74098 20.398 9.61498 20.236C9.52498 20.11 9.50698 19.948 9.48898 19.804C9.47098 19.696 9.57898 19.552 9.70498 19.498C9.83098 19.444 9.90298 19.48 9.93898 19.588C9.95698 19.642 9.97498 19.678 9.99298 19.714C10.011 19.804 10.065 19.804 10.137 19.804C10.371 19.768 10.569 19.714 10.731 19.57C10.839 19.48 10.947 19.48 11.055 19.48C11.181 19.462 11.235 19.57 11.289 19.66C11.325 19.714 11.325 19.786 11.307 19.84C11.289 19.966 11.271 20.092 11.199 20.2C11.307 20.308 11.289 20.434 11.289 20.56C11.307 20.722 11.325 20.866 11.271 21.01C11.253 21.064 11.271 21.118 11.271 21.172C11.271 21.316 11.325 21.46 11.271 21.568C11.199 21.712 11.325 21.82 11.307 21.946C11.289 22.126 11.271 22.306 11.307 22.486C11.307 22.522 11.289 22.522 11.253 22.54C11.163 22.612 11.145 22.648 11.235 22.72C11.343 22.81 11.361 22.918 11.361 23.062C11.361 23.224 11.379 23.404 11.361 23.584C11.343 23.872 11.397 24.142 11.415 24.43C11.433 24.88 11.469 25.33 11.487 25.762C11.523 26.266 11.577 26.752 11.613 27.238C11.631 27.508 11.631 27.778 11.649 28.048C11.649 28.21 11.613 28.39 11.613 28.552C11.631 28.714 11.667 28.876 11.667 29.038C11.685 29.38 11.685 29.722 11.685 30.064C11.685 30.226 11.703 30.262 11.865 30.28C11.991 30.28 12.099 30.28 12.207 30.298C12.297 30.298 12.333 30.262 12.333 30.172C12.333 30.082 12.387 29.992 12.333 29.884C12.279 29.812 12.351 29.704 12.333 29.632C12.297 29.362 12.369 29.092 12.333 28.84C12.297 28.57 12.333 28.3 12.279 28.048C12.261 27.994 12.261 27.94 12.279 27.886C12.315 27.652 12.261 27.436 12.261 27.202C12.279 27.094 12.279 26.968 12.297 26.842C12.297 26.698 12.279 26.536 12.279 26.392C12.279 25.96 12.225 25.546 12.225 25.114C12.225 24.934 12.189 24.736 12.189 24.556C12.189 24.394 12.171 24.25 12.153 24.088C12.117 23.926 12.135 23.764 12.135 23.62C12.153 23.458 12.135 23.296 12.117 23.134C12.081 22.684 12.027 22.234 12.045 21.784C12.045 21.712 12.045 21.658 12.045 21.604C12.063 21.46 12.063 21.46 12.189 21.46C12.243 21.46 12.279 21.46 12.333 21.46C12.405 21.442 12.423 21.388 12.423 21.316C12.423 21.244 12.387 21.226 12.333 21.226C12.297 21.226 12.261 21.208 12.225 21.208C12.189 21.208 12.153 21.208 12.135 21.244C12.117 21.28 12.171 21.28 12.189 21.298C12.189 21.316 12.207 21.316 12.207 21.316C12.225 21.334 12.261 21.352 12.225 21.388C12.207 21.406 12.189 21.406 12.171 21.406C12.099 21.37 12.063 21.334 12.045 21.244C11.991 20.938 11.973 20.632 11.973 20.326C11.973 20.11 11.991 19.912 11.955 19.714C11.937 19.66 11.937 19.606 11.955 19.552C11.991 19.48 11.973 19.426 11.955 19.354C11.883 18.976 11.829 18.58 11.811 18.184C11.793 18.004 11.721 17.95 11.595 18.076C11.487 18.166 11.343 18.202 11.235 18.274C11.127 18.364 10.983 18.418 10.857 18.472C10.767 18.526 10.695 18.598 10.623 18.652C10.335 18.814 10.119 19.048 9.86698 19.264C9.81298 19.318 9.75898 19.408 9.66898 19.3C9.66898 19.3 9.63298 19.3 9.59698 19.3C9.47098 19.318 9.43498 19.3 9.38098 19.192C9.29098 18.94 9.39898 18.688 9.63298 18.58C9.68698 18.544 9.74098 18.508 9.79498 18.472C9.84898 18.454 9.90298 18.418 9.95698 18.436C10.029 18.472 10.065 18.436 10.101 18.382C10.101 18.364 10.137 18.346 10.155 18.346C10.407 18.256 10.605 18.094 10.839 18.004C11.037 17.95 11.199 17.806 11.361 17.68C11.415 17.644 11.469 17.554 11.541 17.68C11.577 17.734 11.577 17.662 11.577 17.644C11.703 17.41 12.027 17.374 12.171 17.59C12.189 17.608 12.207 17.626 12.207 17.644C12.261 18.058 12.351 18.454 12.351 18.868C12.351 18.994 12.423 19.102 12.423 19.246C12.423 19.318 12.423 19.39 12.423 19.462C12.441 19.552 12.423 19.552 12.333 19.516H12.297C12.279 19.534 12.279 19.552 12.279 19.588C12.279 19.642 12.315 19.66 12.351 19.678C12.459 19.732 12.477 19.804 12.459 19.912C12.441 20.02 12.423 20.11 12.459 20.218C12.477 20.254 12.459 20.308 12.459 20.362C12.423 20.452 12.405 20.542 12.459 20.632C12.495 20.686 12.459 20.722 12.459 20.776C12.477 21.028 12.477 21.298 12.495 21.55C12.513 21.82 12.495 22.072 12.531 22.324C12.549 22.396 12.531 22.468 12.513 22.54C12.477 22.648 12.441 22.738 12.549 22.846C12.603 22.9 12.585 22.99 12.585 23.08C12.585 23.368 12.603 23.674 12.603 23.962C12.603 24.16 12.621 24.358 12.585 24.556C12.585 24.61 12.585 24.646 12.603 24.7C12.657 24.934 12.657 25.186 12.657 25.456C12.657 25.636 12.675 25.816 12.693 25.996C12.729 26.392 12.711 26.788 12.693 27.166C12.693 27.292 12.675 27.418 12.711 27.526C12.711 27.562 12.693 27.598 12.693 27.634C12.657 27.724 12.639 27.796 12.693 27.904C12.729 27.94 12.711 28.03 12.711 28.102C12.747 28.48 12.747 28.858 12.729 29.254ZM17.8091 29.254C17.8091 29.398 17.8271 29.542 17.8451 29.686C17.8631 29.902 17.8271 30.118 17.8271 30.334C17.8451 30.586 17.7371 30.712 17.4491 30.766C17.2691 30.784 17.0891 30.784 16.9091 30.766C16.8371 30.766 16.7651 30.766 16.6751 30.748C16.6211 30.748 16.5311 30.748 16.5491 30.64C16.5671 30.604 16.5311 30.604 16.5131 30.604C16.3691 30.514 16.2971 30.388 16.2791 30.208C16.2431 29.884 16.2971 29.578 16.2611 29.254C16.2791 28.93 16.2431 28.606 16.2611 28.282C16.2791 28.084 16.2431 27.904 16.2251 27.706C16.2071 27.382 16.1711 27.058 16.2071 26.716C16.2071 26.662 16.1891 26.59 16.1891 26.536C16.1531 26.338 16.0991 26.14 16.1351 25.924C16.1531 25.888 16.1351 25.852 16.1351 25.816C16.0631 25.582 16.0811 25.348 16.0631 25.096C16.0631 25.006 16.0631 24.916 16.1351 24.844C16.1711 24.79 16.1891 24.736 16.1171 24.7C16.0271 24.628 16.0091 24.538 16.0091 24.448C16.0271 24.304 16.0091 24.142 16.0091 23.998C16.0271 23.854 15.9731 23.692 15.9731 23.548C15.9731 23.278 15.9371 23.008 16.0271 22.738C16.0451 22.666 16.0451 22.576 15.9911 22.504C15.9191 22.396 15.9011 22.27 15.9191 22.144C15.9371 22.036 15.9191 21.928 15.9191 21.82C15.9011 21.658 15.9191 21.496 15.9011 21.334C15.8831 21.244 15.9911 21.19 15.9731 21.118C15.9551 21.028 15.8831 20.974 15.9011 20.884C15.9011 20.776 15.9011 20.686 15.9011 20.578C15.9011 20.524 15.9011 20.452 15.9551 20.416C15.9911 20.38 15.9911 20.362 15.9731 20.308C15.9371 20.218 15.9191 20.11 15.9371 20.02C15.9551 19.984 15.9731 19.948 15.9371 19.93C15.8831 19.912 15.9011 19.966 15.8831 20.002C15.8831 20.002 15.8831 20.02 15.8651 20.038C15.8291 20.146 15.8111 20.164 15.7211 20.11C15.6671 20.074 15.6491 20.074 15.5951 20.128C15.4691 20.254 15.2711 20.29 15.1091 20.326C15.0731 20.344 15.0371 20.344 15.0011 20.344C14.7851 20.398 14.8211 20.398 14.6951 20.236C14.6051 20.11 14.5871 19.948 14.5691 19.804C14.5511 19.696 14.6591 19.552 14.7851 19.498C14.9111 19.444 14.9831 19.48 15.0191 19.588C15.0371 19.642 15.0551 19.678 15.0731 19.714C15.0911 19.804 15.1451 19.804 15.2171 19.804C15.4511 19.768 15.6491 19.714 15.8111 19.57C15.9191 19.48 16.0271 19.48 16.1351 19.48C16.2611 19.462 16.3151 19.57 16.3691 19.66C16.4051 19.714 16.4051 19.786 16.3871 19.84C16.3691 19.966 16.3511 20.092 16.2791 20.2C16.3871 20.308 16.3691 20.434 16.3691 20.56C16.3871 20.722 16.4051 20.866 16.3511 21.01C16.3331 21.064 16.3511 21.118 16.3511 21.172C16.3511 21.316 16.4051 21.46 16.3511 21.568C16.2791 21.712 16.4051 21.82 16.3871 21.946C16.3691 22.126 16.3511 22.306 16.3871 22.486C16.3871 22.522 16.3691 22.522 16.3331 22.54C16.2431 22.612 16.2251 22.648 16.3151 22.72C16.4231 22.81 16.4411 22.918 16.4411 23.062C16.4411 23.224 16.4591 23.404 16.4411 23.584C16.4231 23.872 16.4771 24.142 16.4951 24.43C16.5131 24.88 16.5491 25.33 16.5671 25.762C16.6031 26.266 16.6571 26.752 16.6931 27.238C16.7111 27.508 16.7111 27.778 16.7291 28.048C16.7291 28.21 16.6931 28.39 16.6931 28.552C16.7111 28.714 16.7471 28.876 16.7471 29.038C16.7651 29.38 16.7651 29.722 16.7651 30.064C16.7651 30.226 16.7831 30.262 16.9451 30.28C17.0711 30.28 17.1791 30.28 17.2871 30.298C17.3771 30.298 17.4131 30.262 17.4131 30.172C17.4131 30.082 17.4671 29.992 17.4131 29.884C17.3591 29.812 17.4311 29.704 17.4131 29.632C17.3771 29.362 17.4491 29.092 17.4131 28.84C17.3771 28.57 17.4131 28.3 17.3591 28.048C17.3411 27.994 17.3411 27.94 17.3591 27.886C17.3951 27.652 17.3411 27.436 17.3411 27.202C17.3591 27.094 17.3591 26.968 17.3771 26.842C17.3771 26.698 17.3591 26.536 17.3591 26.392C17.3591 25.96 17.3051 25.546 17.3051 25.114C17.3051 24.934 17.2691 24.736 17.2691 24.556C17.2691 24.394 17.2511 24.25 17.2331 24.088C17.1971 23.926 17.2151 23.764 17.2151 23.62C17.2331 23.458 17.2151 23.296 17.1971 23.134C17.1611 22.684 17.1071 22.234 17.1251 21.784C17.1251 21.712 17.1251 21.658 17.1251 21.604C17.1431 21.46 17.1431 21.46 17.2691 21.46C17.3231 21.46 17.3591 21.46 17.4131 21.46C17.4851 21.442 17.5031 21.388 17.5031 21.316C17.5031 21.244 17.4671 21.226 17.4131 21.226C17.3771 21.226 17.3411 21.208 17.3051 21.208C17.2691 21.208 17.2331 21.208 17.2151 21.244C17.1971 21.28 17.2511 21.28 17.2691 21.298C17.2691 21.316 17.2871 21.316 17.2871 21.316C17.3051 21.334 17.3411 21.352 17.3051 21.388C17.2871 21.406 17.2691 21.406 17.2511 21.406C17.1791 21.37 17.1431 21.334 17.1251 21.244C17.0711 20.938 17.0531 20.632 17.0531 20.326C17.0531 20.11 17.0711 19.912 17.0351 19.714C17.0171 19.66 17.0171 19.606 17.0351 19.552C17.0711 19.48 17.0531 19.426 17.0351 19.354C16.9631 18.976 16.9091 18.58 16.8911 18.184C16.8731 18.004 16.8011 17.95 16.6751 18.076C16.5671 18.166 16.4231 18.202 16.3151 18.274C16.2071 18.364 16.0631 18.418 15.9371 18.472C15.8471 18.526 15.7751 18.598 15.7031 18.652C15.4151 18.814 15.1991 19.048 14.9471 19.264C14.8931 19.318 14.8391 19.408 14.7491 19.3C14.7491 19.3 14.7131 19.3 14.6771 19.3C14.5511 19.318 14.5151 19.3 14.4611 19.192C14.3711 18.94 14.4791 18.688 14.7131 18.58C14.7671 18.544 14.8211 18.508 14.8751 18.472C14.9291 18.454 14.9831 18.418 15.0371 18.436C15.1091 18.472 15.1451 18.436 15.1811 18.382C15.1811 18.364 15.2171 18.346 15.2351 18.346C15.4871 18.256 15.6851 18.094 15.9191 18.004C16.1171 17.95 16.2791 17.806 16.4411 17.68C16.4951 17.644 16.5491 17.554 16.6211 17.68C16.6571 17.734 16.6571 17.662 16.6571 17.644C16.7831 17.41 17.1071 17.374 17.2511 17.59C17.2691 17.608 17.2871 17.626 17.2871 17.644C17.3411 18.058 17.4311 18.454 17.4311 18.868C17.4311 18.994 17.5031 19.102 17.5031 19.246C17.5031 19.318 17.5031 19.39 17.5031 19.462C17.5211 19.552 17.5031 19.552 17.4131 19.516H17.3771C17.3591 19.534 17.3591 19.552 17.3591 19.588C17.3591 19.642 17.3951 19.66 17.4311 19.678C17.5391 19.732 17.5571 19.804 17.5391 19.912C17.5211 20.02 17.5031 20.11 17.5391 20.218C17.5571 20.254 17.5391 20.308 17.5391 20.362C17.5031 20.452 17.4851 20.542 17.5391 20.632C17.5751 20.686 17.5391 20.722 17.5391 20.776C17.5571 21.028 17.5571 21.298 17.5751 21.55C17.5931 21.82 17.5751 22.072 17.6111 22.324C17.6291 22.396 17.6111 22.468 17.5931 22.54C17.5571 22.648 17.5211 22.738 17.6291 22.846C17.6831 22.9 17.6651 22.99 17.6651 23.08C17.6651 23.368 17.6831 23.674 17.6831 23.962C17.6831 24.16 17.7011 24.358 17.6651 24.556C17.6651 24.61 17.6651 24.646 17.6831 24.7C17.7371 24.934 17.7371 25.186 17.7371 25.456C17.7371 25.636 17.7551 25.816 17.7731 25.996C17.8091 26.392 17.7911 26.788 17.7731 27.166C17.7731 27.292 17.7551 27.418 17.7911 27.526C17.7911 27.562 17.7731 27.598 17.7731 27.634C17.7371 27.724 17.7191 27.796 17.7731 27.904C17.8091 27.94 17.7911 28.03 17.7911 28.102C17.8271 28.48 17.8271 28.858 17.8091 29.254ZM28.1271 22.72C28.1631 22.882 28.1991 23.062 28.1811 23.224C28.1631 23.368 28.1811 23.494 28.1631 23.638C28.1451 23.764 28.1631 23.908 28.0011 23.98C27.9651 23.998 27.9471 24.07 28.0011 24.106C28.0731 24.178 28.0371 24.232 28.0191 24.304C27.9651 24.43 27.9111 24.556 27.8211 24.646C27.7311 24.754 27.6591 24.844 27.5871 24.952C27.4251 25.186 27.2271 25.402 27.0471 25.6C26.9391 25.726 26.7951 25.816 26.6511 25.924C26.4891 26.032 26.3271 26.158 26.1831 26.302C25.9851 26.464 25.7691 26.59 25.5171 26.68C25.1391 26.806 24.7791 26.95 24.4011 27.058C24.1491 27.112 23.8791 27.166 23.6091 27.184C23.3391 27.202 23.0511 27.202 22.7811 27.292C22.6191 27.346 22.4571 27.31 22.3131 27.31C22.2051 27.328 22.0971 27.31 21.9891 27.346C21.9351 27.364 21.8631 27.364 21.7911 27.382C21.6111 27.382 21.6111 27.382 21.5751 27.562C21.5571 27.778 21.5211 27.994 21.5031 28.192C21.5031 28.282 21.5031 28.372 21.5211 28.444C21.5391 28.66 21.4851 28.858 21.4851 29.056C21.4671 29.2 21.4311 29.344 21.4671 29.488C21.4671 29.524 21.4671 29.578 21.4491 29.614C21.3771 29.938 21.3771 30.28 21.3231 30.604C21.2871 30.91 21.1071 31.09 20.8011 31.108C20.5131 31.126 20.2071 31.072 19.9191 31.018C19.7751 30.982 19.6851 30.874 19.6311 30.73C19.5771 30.514 19.5771 30.28 19.5771 30.064C19.5591 29.812 19.5771 29.542 19.5951 29.272C19.5951 29.128 19.6131 28.984 19.6491 28.858C19.6671 28.786 19.7211 28.75 19.7751 28.804C19.8291 28.84 19.8651 28.786 19.9191 28.786C19.9911 28.768 20.0271 28.732 20.0271 28.66C20.0451 28.534 20.0631 28.408 20.0811 28.282C20.1351 27.922 20.0991 27.562 20.1351 27.202C20.1531 26.932 20.1711 26.662 20.1351 26.392C20.1171 26.194 20.1351 25.978 20.2071 25.78C20.2071 25.744 20.2251 25.708 20.2071 25.672C20.1351 25.582 20.1531 25.492 20.1531 25.402C20.1891 25.258 20.1711 25.114 20.1891 24.97C20.1891 24.88 20.1531 24.79 20.2791 24.736C20.3151 24.718 20.2971 24.7 20.2611 24.682C20.1891 24.664 20.1891 24.61 20.2071 24.538C20.2071 24.394 20.2251 24.25 20.2071 24.106C20.1891 24.088 20.2071 24.07 20.1891 24.07C20.1891 23.98 20.2971 23.89 20.2431 23.8C20.1891 23.71 20.2251 23.638 20.2431 23.548C20.2431 23.458 20.2431 23.368 20.2431 23.278C20.2431 23.188 20.2791 23.116 20.3691 23.116C20.3871 23.098 20.3871 23.098 20.4051 23.098C20.3871 23.08 20.3691 23.08 20.3511 23.08C20.2971 23.08 20.2611 23.08 20.2611 23.008C20.2431 22.792 20.2251 22.576 20.2791 22.36C20.2971 22.306 20.2971 22.252 20.2971 22.198C20.2611 22.108 20.2611 22 20.2971 21.91C20.3151 21.874 20.3151 21.838 20.3151 21.802C20.2611 21.604 20.3151 21.424 20.2971 21.226C20.2791 21.028 20.2971 20.812 20.3691 20.614C20.4231 20.488 20.4051 20.362 20.4051 20.236C20.4231 19.858 20.4591 19.498 20.5851 19.156C20.6031 19.12 20.6211 19.084 20.6211 19.048C20.5851 18.76 20.7291 18.49 20.8011 18.22C20.8551 18.022 20.9991 17.914 21.2151 17.842C21.4671 17.788 21.7191 17.806 21.9531 17.788C22.3851 17.77 22.7991 17.806 23.2131 17.878C23.2671 17.896 23.3211 17.896 23.3571 17.932C23.4651 17.986 23.5731 17.986 23.6991 18.004C23.8971 18.004 24.0951 18.058 24.1491 18.292C24.1671 18.328 24.1851 18.346 24.2031 18.328C24.2391 18.31 24.2211 18.292 24.2211 18.274C24.2031 18.166 24.2211 18.148 24.2931 18.184C24.5271 18.256 24.7791 18.328 24.9771 18.454C25.2471 18.634 25.5351 18.742 25.8051 18.886C26.0211 19.012 26.2551 19.102 26.4711 19.264C26.6151 19.39 26.7591 19.534 26.8131 19.732C26.8311 19.804 26.8671 19.858 26.9391 19.84C27.0111 19.84 27.0471 19.876 27.0831 19.948C27.1011 20.02 27.1371 20.056 27.1911 20.11C27.3351 20.218 27.4071 20.398 27.5151 20.542C27.5331 20.56 27.5151 20.596 27.5151 20.632C27.4971 20.686 27.5151 20.722 27.5511 20.758C27.7311 20.92 27.8031 21.136 27.8751 21.352C27.9111 21.496 27.9291 21.64 27.9651 21.766C28.0011 21.91 28.0551 22.036 28.0911 22.18C28.1271 22.36 28.0911 22.54 28.1271 22.72ZM27.8211 22.774C27.9291 22.738 27.9111 22.594 27.8031 22.558C27.6771 22.504 27.6411 22.414 27.6051 22.288C27.5331 22.072 27.4971 21.856 27.4431 21.64C27.4251 21.55 27.4071 21.496 27.3891 21.424C27.2811 21.154 27.1551 20.902 26.9931 20.668C26.9571 20.614 26.9571 20.596 26.9751 20.542C27.0111 20.434 26.9931 20.38 26.9211 20.362C26.7411 20.308 26.6331 20.182 26.5251 20.038C26.4891 19.984 26.4711 19.948 26.4171 19.912C26.1651 19.696 25.8771 19.516 25.5711 19.372C25.3191 19.264 25.0671 19.156 24.8331 19.012C24.7791 18.976 24.7251 18.922 24.6531 18.904C24.2211 18.742 23.7711 18.598 23.3211 18.472C22.9791 18.382 22.6191 18.364 22.2591 18.382C22.1511 18.382 22.0251 18.418 21.9351 18.328C21.8991 18.31 21.8631 18.31 21.8271 18.328C21.7191 18.364 21.6291 18.382 21.5211 18.382C21.3411 18.4 21.2331 18.544 21.1791 18.688C21.1431 18.85 21.1251 18.976 21.1431 19.12C21.1431 19.138 21.1431 19.156 21.1431 19.174C21.0531 19.552 20.9631 19.93 20.9271 20.326C20.9091 20.524 20.8551 20.722 20.8371 20.92C20.8371 21.118 20.7651 21.298 20.8011 21.514C20.8011 21.568 20.8011 21.658 20.7471 21.712C20.6931 21.784 20.7111 21.874 20.7291 21.946C20.7831 22.072 20.7471 22.198 20.7471 22.324C20.7651 22.54 20.7291 22.738 20.5851 22.9C20.5491 22.936 20.5491 22.99 20.6031 23.026C20.7111 23.08 20.7291 23.17 20.7111 23.296C20.7111 23.422 20.7291 23.566 20.6751 23.674C20.6031 23.872 20.7111 24.07 20.6391 24.268C20.7111 24.466 20.6211 24.664 20.6211 24.88C20.6391 25.24 20.5851 25.618 20.5671 25.978C20.5671 25.996 20.5671 26.014 20.5671 26.032C20.5671 26.104 20.4771 26.158 20.4951 26.176C20.5491 26.23 20.5491 26.284 20.5491 26.338C20.5311 26.446 20.5311 26.554 20.5311 26.662C20.5131 27.04 20.4951 27.436 20.4771 27.814C20.4591 27.94 20.4771 28.066 20.4591 28.192C20.4051 28.552 20.3511 28.894 20.2431 29.236C20.2251 29.308 20.2071 29.362 20.1351 29.38C20.0451 29.416 20.0271 29.488 20.0271 29.578C20.0091 29.848 20.0451 30.118 20.0631 30.388C20.0631 30.532 20.0991 30.568 20.2431 30.586C20.3691 30.586 20.5131 30.604 20.6391 30.622C20.7831 30.64 20.7831 30.64 20.8191 30.478C20.8371 30.424 20.8551 30.37 20.8551 30.298C20.8371 30.082 20.8911 29.866 20.9091 29.65C20.9091 29.452 21.0531 29.29 20.9631 29.092C20.9631 29.074 20.9811 29.074 20.9811 29.056C20.9811 29.038 20.9991 28.66 20.9991 28.624C20.9631 28.426 20.9631 28.21 21.0171 28.012C21.0351 27.886 21.1611 27.742 21.0351 27.598C21.0351 27.598 21.0531 27.58 21.0531 27.562C21.0531 27.4 21.1071 27.274 21.1611 27.13C21.1971 27.004 21.2871 26.932 21.3951 26.914C21.5571 26.878 21.7191 26.842 21.8991 26.878C21.9351 26.878 21.9891 26.896 22.0251 26.878C22.1511 26.806 22.2591 26.842 22.4031 26.824C22.5471 26.878 22.6911 26.824 22.8351 26.788C23.0691 26.752 23.3031 26.716 23.5371 26.716C23.8431 26.716 24.1311 26.662 24.4191 26.554C24.5991 26.5 24.7611 26.41 24.9591 26.374C25.0671 26.356 25.1931 26.338 25.3011 26.284C25.4091 26.212 25.5171 26.176 25.6431 26.122C25.8771 25.996 26.0931 25.87 26.2551 25.672C26.3811 25.546 26.5071 25.42 26.6511 25.33C26.8131 25.24 26.8851 25.024 27.0831 24.97C27.0831 24.97 27.1011 24.952 27.1011 24.934C27.1191 24.718 27.2631 24.574 27.3891 24.412C27.5691 24.178 27.6411 23.926 27.6771 23.656C27.6951 23.44 27.6951 23.224 27.6951 23.008C27.6951 22.918 27.6771 22.81 27.8211 22.774ZM26.0571 20.758C26.2911 20.992 26.4171 21.28 26.5251 21.586C26.6151 21.892 26.6871 22.198 26.6691 22.522C26.6691 22.666 26.6691 22.828 26.6151 22.972C26.5971 23.08 26.6151 23.188 26.6151 23.296C26.6331 23.602 26.5971 23.89 26.5071 24.16C26.4171 24.466 26.2011 24.7 25.9311 24.862C25.6791 25.006 25.4451 25.168 25.1391 25.204C25.0131 25.204 24.9051 25.276 24.7791 25.312C24.2931 25.474 23.7891 25.564 23.3211 25.726C23.1051 25.798 22.8891 25.834 22.6731 25.834C22.6011 25.834 22.5471 25.852 22.4931 25.816C22.4211 25.78 22.3311 25.762 22.2591 25.834C22.0611 25.816 21.8271 25.87 21.6831 25.654C21.4851 25.564 21.4671 25.384 21.5031 25.204C21.5391 24.934 21.5751 24.664 21.6471 24.394C21.6831 24.268 21.6831 24.142 21.6831 24.016C21.7011 23.872 21.6651 23.71 21.7551 23.566C21.7731 23.548 21.7731 23.512 21.7551 23.494C21.7191 23.242 21.7551 23.008 21.7731 22.774C21.7911 22.648 21.8091 22.522 21.7911 22.396C21.7731 22.054 21.8631 21.712 21.8811 21.37C21.8991 21.298 21.8991 21.244 21.9171 21.19C21.9351 21.028 21.9351 20.884 21.7731 20.794C21.7011 20.74 21.6651 20.668 21.7011 20.56C21.7371 20.29 21.7731 20.038 21.8631 19.786C21.8991 19.66 21.8991 19.534 21.9711 19.408C22.0431 19.228 22.2951 19.102 22.4751 19.156C22.5831 19.174 22.6731 19.192 22.7811 19.174C22.9071 19.156 23.0151 19.174 23.1231 19.21C23.3391 19.3 23.5551 19.318 23.7891 19.336C24.0951 19.354 24.4011 19.444 24.6531 19.642C24.7251 19.696 24.7791 19.75 24.8691 19.75C24.8871 19.75 24.8871 19.768 24.9051 19.786C25.2291 20.02 25.5711 20.218 25.8411 20.524C25.9131 20.614 25.9851 20.686 26.0571 20.758ZM26.2011 22.738C26.2371 22.63 26.2371 22.504 26.2011 22.36C26.2011 22.342 26.2011 22.324 26.2011 22.324C26.2371 22.036 26.0931 21.802 26.0031 21.568C25.8951 21.316 25.7511 21.1 25.5351 20.92C25.4991 20.884 25.4451 20.848 25.4631 20.812C25.4811 20.722 25.4091 20.686 25.3731 20.668C25.1211 20.578 24.9591 20.398 24.7431 20.272C24.6531 20.218 24.5271 20.164 24.5091 20.038C24.5091 20.002 24.4911 19.984 24.4731 20.002C24.3471 20.056 24.2571 19.984 24.1671 19.93C24.0411 19.858 23.8971 19.822 23.7531 19.822C23.5911 19.822 23.4111 19.804 23.2491 19.768C23.0151 19.678 22.7811 19.66 22.5471 19.624C22.3851 19.606 22.3851 19.606 22.3131 19.768C22.2771 19.84 22.2771 19.894 22.3311 19.966C22.3491 19.984 22.3851 20.002 22.3671 20.038C22.3131 20.2 22.3671 20.362 22.3131 20.506C22.2231 20.884 22.2591 21.28 22.2051 21.658C22.1871 21.784 22.1691 21.91 22.1691 22.036C22.1691 22.468 22.1511 22.882 22.1331 23.314C22.1331 23.458 22.0611 23.602 22.0971 23.764C22.1331 23.89 22.1331 24.016 22.0791 24.142C22.0611 24.178 22.0791 24.232 22.0791 24.268C22.0971 24.538 22.0431 24.79 21.9351 25.042C21.8631 25.222 21.9531 25.384 22.1511 25.384C22.2231 25.402 22.2951 25.402 22.3851 25.402C22.5111 25.402 22.6551 25.402 22.7811 25.366C22.9611 25.348 23.1411 25.312 23.3211 25.258C23.5011 25.204 23.6811 25.168 23.8611 25.15C23.9151 25.132 23.9511 25.114 23.9871 25.096C24.0231 25.06 24.0591 25.042 24.0951 25.042C24.2931 25.024 24.4731 24.916 24.6711 24.88C25.0131 24.826 25.3011 24.682 25.6071 24.52C25.8591 24.376 26.0571 24.196 26.1111 23.89C26.1291 23.728 26.1471 23.566 26.1471 23.422C26.1651 23.188 26.1471 22.954 26.2011 22.738ZM38.5863 28.3C38.6583 28.552 38.5683 28.732 38.3163 28.804C38.1183 28.876 37.9023 28.876 37.7043 28.894C37.6503 28.894 37.5963 28.876 37.5603 28.822C37.5243 28.786 37.5423 28.75 37.5603 28.714C37.5963 28.66 37.5603 28.66 37.5243 28.642C37.4163 28.642 37.3983 28.57 37.3623 28.48C37.3083 28.3 37.2903 28.102 37.2723 27.922C37.2183 27.58 37.1823 27.238 37.1283 26.914C37.1103 26.77 37.0563 26.626 37.0203 26.482C36.9843 26.338 36.9483 26.176 36.9123 26.014C36.8943 25.996 36.8943 25.996 36.8943 25.978C36.9483 25.78 36.8403 25.6 36.7863 25.402C36.6963 25.024 36.6063 24.628 36.5343 24.25C36.4803 23.962 36.4263 23.674 36.4083 23.386C36.3723 23.116 36.3903 22.846 36.3903 22.576C36.3723 22.396 36.3543 22.234 36.3543 22.054C36.3543 22.018 36.3363 21.964 36.3003 21.964C36.2643 21.946 36.2283 21.982 36.2103 22C35.9943 22.234 35.7603 22.45 35.5623 22.684C35.4723 22.774 35.3463 22.81 35.2743 22.9C35.2023 22.972 35.1843 23.116 35.1123 23.188C34.8783 23.422 34.6803 23.656 34.5183 23.926C34.4463 24.034 34.3563 24.142 34.2663 24.25C34.1943 24.376 34.0863 24.466 33.9963 24.574C33.9423 24.646 33.9063 24.7 33.8523 24.772C33.8163 24.826 33.7803 24.898 33.7083 24.934C33.6003 25.006 33.5103 25.096 33.4563 25.222C33.4203 25.294 33.3663 25.33 33.2943 25.366C33.1863 25.438 33.0603 25.438 32.9883 25.348C32.8083 25.168 32.5923 25.06 32.4663 24.844C32.4303 24.808 32.4123 24.79 32.3763 24.772C32.1423 24.61 31.9443 24.394 31.7643 24.16C31.6563 24.034 31.5303 23.962 31.4043 23.854C31.2963 23.764 31.1703 23.674 31.1343 23.53C31.1163 23.44 31.0083 23.422 30.9543 23.368C30.9363 23.332 30.9003 23.314 30.8823 23.35C30.8463 23.368 30.8643 23.386 30.8643 23.422C30.9903 23.656 30.9903 23.89 30.9903 24.142C30.9903 24.196 30.9903 24.268 31.0083 24.34C31.0983 24.754 31.1163 25.168 31.1703 25.582C31.1883 25.798 31.2603 26.014 31.2603 26.248C31.2783 26.356 31.2963 26.482 31.2963 26.59C31.2963 27.112 31.3503 27.616 31.4043 28.138C31.4403 28.498 31.4763 28.858 31.4943 29.218C31.5123 29.29 31.5123 29.362 31.4943 29.416C31.4763 29.596 31.3143 29.74 31.1523 29.704C30.9003 29.632 30.6483 29.686 30.4143 29.668C30.3603 29.65 30.3063 29.668 30.2883 29.632C30.2523 29.524 30.1623 29.488 30.0903 29.434C30.0183 29.38 29.9823 29.308 29.9643 29.218C29.9283 29.056 29.9103 28.894 29.8923 28.732C29.8743 28.48 29.8203 28.228 29.8743 27.976C29.8743 27.94 29.8743 27.922 29.8563 27.886C29.8023 27.778 29.8023 27.652 29.8203 27.526C29.8383 27.382 29.8203 27.238 29.8023 27.076C29.7303 26.608 29.7303 26.122 29.7123 25.636C29.7123 25.546 29.7123 25.456 29.6943 25.366C29.6763 25.15 29.6403 24.952 29.6943 24.736C29.7123 24.718 29.6943 24.7 29.6763 24.682C29.6223 24.574 29.6403 24.466 29.6583 24.358C29.6763 24.196 29.6763 24.07 29.6223 23.926C29.5863 23.836 29.5683 23.746 29.5683 23.656C29.5323 23.278 29.4783 22.918 29.4243 22.54C29.4063 22.522 29.4063 22.504 29.4063 22.468C29.4423 22.198 29.3883 21.91 29.4243 21.64C29.4423 21.478 29.3703 21.316 29.4063 21.136C29.4243 21.1 29.4603 21.028 29.4423 20.974C29.4423 20.938 29.4783 20.884 29.4603 20.866C29.3343 20.704 29.4243 20.542 29.4063 20.38C29.4063 20.272 29.3883 20.164 29.3523 20.056C29.3163 19.912 29.3343 19.786 29.3343 19.642C29.3343 19.57 29.3163 19.498 29.3523 19.444C29.3883 19.39 29.4963 19.372 29.5503 19.318C29.5683 19.282 29.6223 19.3 29.6583 19.336C29.7663 19.462 29.9463 19.552 29.9643 19.75C30.1083 19.84 30.1263 20.002 30.2343 20.11C30.3423 20.2 30.4143 20.344 30.5223 20.452C30.6483 20.56 30.7383 20.722 30.8283 20.866C30.9183 20.974 30.9903 21.1 31.1163 21.172C31.2243 21.244 31.2783 21.388 31.3503 21.478C31.6023 21.766 31.8543 22.054 32.0343 22.396C32.0523 22.432 32.0883 22.468 32.1243 22.486C32.3403 22.666 32.5023 22.882 32.6103 23.152C32.6463 23.224 32.7003 23.296 32.7543 23.368C32.7903 23.422 32.8443 23.44 32.8983 23.386C33.0603 23.224 33.2403 23.098 33.4023 22.954C33.5463 22.774 33.6903 22.594 33.8163 22.414C33.8883 22.306 33.9783 22.216 34.1223 22.198C34.1583 22.198 34.1583 22.162 34.1583 22.144C34.1043 22.054 34.1583 21.982 34.2123 21.91C34.3743 21.73 34.5363 21.568 34.6983 21.388C34.7343 21.352 34.7883 21.316 34.8423 21.298C34.8603 21.28 34.8963 21.28 34.9143 21.226C34.9323 21.1 35.0403 21.028 35.1123 20.938C35.3283 20.74 35.5263 20.506 35.7603 20.326C35.8683 20.218 35.9583 20.11 36.0483 19.984C36.3003 19.642 36.6243 19.408 36.9663 19.21C37.1823 19.084 37.3623 19.156 37.4343 19.39C37.4523 19.408 37.4343 19.426 37.4523 19.426C37.6683 19.66 37.6323 19.966 37.6863 20.254C37.6863 20.272 37.6863 20.29 37.6863 20.308C37.7403 20.488 37.7583 20.686 37.7583 20.866C37.7943 21.28 37.8303 21.658 37.8663 22.036C37.9023 22.288 37.9383 22.54 37.9383 22.792C37.9383 23.008 37.9743 23.206 38.0103 23.404C38.0463 23.62 38.0643 23.818 38.0643 24.034C38.0643 24.052 38.0463 24.07 38.0463 24.088C38.1543 24.268 38.1183 24.466 38.1543 24.664C38.1723 24.736 38.1723 24.808 38.1543 24.88C38.1363 24.916 38.1363 24.952 38.1543 24.988C38.2083 25.186 38.1903 25.402 38.2623 25.582C38.2983 25.69 38.2983 25.798 38.3163 25.906C38.3703 26.248 38.4423 26.59 38.4963 26.932C38.5143 27.058 38.5683 27.184 38.4963 27.31C38.4783 27.346 38.5143 27.382 38.5143 27.418C38.6043 27.634 38.6043 27.85 38.5683 28.084C38.5683 28.156 38.5683 28.228 38.5863 28.3ZM38.0463 28.426V28.444C38.1543 28.426 38.2083 28.354 38.1903 28.246C38.1723 28.174 38.1363 28.12 38.1363 28.048C38.1363 27.778 38.1183 27.508 38.0823 27.238C38.0463 27.022 38.0283 26.806 37.9743 26.59C37.9563 26.536 37.9563 26.464 37.9383 26.392C37.8303 26.05 37.8483 25.708 37.7583 25.366C37.7223 25.24 37.6863 25.096 37.7403 24.97C37.7583 24.934 37.7403 24.898 37.7403 24.88C37.6503 24.556 37.6503 24.25 37.6323 23.926C37.6323 23.908 37.6323 23.872 37.6143 23.854C37.5783 23.782 37.5783 23.728 37.5603 23.656C37.5243 23.224 37.4163 22.81 37.4703 22.378C37.4703 22.378 37.4703 22.36 37.4703 22.342C37.3983 22.072 37.3983 21.802 37.3623 21.532C37.3443 21.334 37.2903 21.118 37.3443 20.902C37.3623 20.812 37.2723 20.704 37.3443 20.596C37.3623 20.578 37.3443 20.56 37.3263 20.542C37.2903 20.506 37.2543 20.47 37.2543 20.416C37.2723 20.2 37.2003 20.002 37.2363 19.768C37.2363 19.732 37.2543 19.696 37.2003 19.66C37.1463 19.642 37.1103 19.606 37.0563 19.66C36.8943 19.786 36.7323 19.894 36.5883 20.02C36.4623 20.128 36.3543 20.236 36.2643 20.362C36.0123 20.668 35.7423 20.956 35.4363 21.226C35.4003 21.244 35.3823 21.28 35.3643 21.28C35.2383 21.28 35.2023 21.352 35.1663 21.442C35.1663 21.478 35.1483 21.514 35.1303 21.532C34.9863 21.622 34.9143 21.784 34.7883 21.892C34.5723 22.054 34.4643 22.306 34.2663 22.486C34.1403 22.774 33.8343 22.918 33.6903 23.206C33.6723 23.242 33.6183 23.278 33.5823 23.314C33.4563 23.458 33.2763 23.548 33.1503 23.674C32.9523 23.854 32.7003 23.854 32.5203 23.674C32.4123 23.566 32.3223 23.458 32.2503 23.314C32.1603 23.116 32.0343 22.972 31.8903 22.828C31.8003 22.738 31.7103 22.648 31.6383 22.54C31.4583 22.288 31.2783 22.036 31.0803 21.82C30.8823 21.568 30.6843 21.316 30.4863 21.082C30.4503 21.046 30.3963 20.974 30.3963 20.956C30.4323 20.848 30.3423 20.83 30.2883 20.776C30.1443 20.668 30.0003 20.542 29.8923 20.38C29.8923 20.38 29.8563 20.362 29.8383 20.362C29.8203 20.362 29.8023 20.38 29.8023 20.416C29.7663 20.794 29.8023 21.172 29.7843 21.55C29.7663 21.892 29.7843 22.234 29.7843 22.576C29.7843 22.666 29.8023 22.756 29.8023 22.846C29.8563 23.188 29.9103 23.512 29.9283 23.836C29.9643 24.16 29.9463 24.484 29.9643 24.79C30.0363 25.456 30.0183 26.122 30.0543 26.788C30.0723 26.986 30.0543 27.166 30.0903 27.364C30.1263 27.544 30.0543 27.724 30.0903 27.922C30.1083 28.048 30.1083 28.174 30.1263 28.3C30.1443 28.552 30.1623 28.804 30.1983 29.056C30.2163 29.2 30.2163 29.182 30.3603 29.218C30.5583 29.272 30.7743 29.236 30.9903 29.272C31.0623 29.272 31.0983 29.236 31.0983 29.164C31.0983 29.128 31.0983 29.11 31.0803 29.092C31.0263 28.444 30.9543 27.814 30.9003 27.166C30.8643 26.788 30.8643 26.428 30.8283 26.05C30.8103 25.888 30.7563 25.708 30.7563 25.546C30.7383 25.348 30.7203 25.168 30.6843 24.97C30.6303 24.502 30.5763 24.016 30.5583 23.53C30.5403 23.332 30.5223 23.152 30.5223 22.954C30.5223 22.846 30.5943 22.792 30.6843 22.738C30.7743 22.684 30.8463 22.72 30.9183 22.792C31.0803 22.972 31.2963 23.098 31.4223 23.314C31.5483 23.494 31.7283 23.602 31.8723 23.728C32.1243 23.962 32.3043 24.232 32.5923 24.43C32.6823 24.502 32.7543 24.592 32.8083 24.682C32.8803 24.772 32.9523 24.844 33.0423 24.898C33.1323 24.952 33.1683 24.952 33.2403 24.862C33.5103 24.52 33.7803 24.196 34.0323 23.854C34.2303 23.584 34.4463 23.35 34.6263 23.08C34.6983 22.972 34.8423 22.918 34.8963 22.81C34.9683 22.702 35.0223 22.594 35.1123 22.486C35.3283 22.27 35.5443 22.054 35.7603 21.82C35.8503 21.748 35.9403 21.658 36.0303 21.568C36.1923 21.442 36.3723 21.424 36.5703 21.496C36.7503 21.568 36.7683 21.712 36.7863 21.874C36.8043 22.252 36.8583 22.63 36.8583 23.008C36.8583 23.152 36.8403 23.314 36.8583 23.476C36.8763 23.71 36.8943 23.926 36.9483 24.16C36.9843 24.322 37.0203 24.466 37.0383 24.646C37.0563 24.7 37.0563 24.754 37.0743 24.79C37.1643 25.042 37.2183 25.294 37.2543 25.546C37.2723 25.654 37.2903 25.762 37.3083 25.852C37.3983 26.212 37.4883 26.572 37.5603 26.932C37.6143 27.274 37.6683 27.598 37.7043 27.922C37.7043 28.066 37.7403 28.192 37.7583 28.336C37.7763 28.408 37.8123 28.444 37.8843 28.444C37.9383 28.426 37.9923 28.444 38.0463 28.426Z" fill="black"/>
</g>
</svg>
