<svg enable-background="new 0 0 24 24" viewBox="0 0 24 24" xmlns="http://www.w3.org/2000/svg"><path d="m19 4c-.525 0-1.021.103-1.497.253-1.434-1.393-3.369-2.253-5.503-2.253-2.211 0-4.213.918-5.661 2.401-.563-.253-1.182-.401-1.839-.401-2.485 0-4.5 2.015-4.5 4.5 0 2.43 1.931 4.398 4.34 4.484.332.937.897 1.786 1.66 2.465v.551c0 3.308 2.692 6 6 6s6-2.692 6-6v-.551c.479-.427.871-.927 1.186-1.467 2.673-.101 4.814-2.284 4.814-4.982 0-2.761-2.239-5-5-5z" fill="#8c5a3c"/><path d="m16 14.441v1.559c0 2.209-1.791 4-4 4s-4-1.791-4-4v-1.559c-1.367-.8-2.236-2.37-1.943-4.116.327-1.957 2.134-3.325 4.118-3.325l1.825 1 1.825-1c1.984 0 3.79 1.368 4.118 3.325.293 1.747-.576 3.316-1.943 4.116z" fill="#be9664"/><circle cx="9" cy="11" fill="#323232" r="1"/><path d="m4 10.182v.768c-1.14-.233-2-1.243-2-2.45 0-1.378 1.121-2.5 2.5-2.5.203 0 .398.031.587.077-.687 1.208-1.087 2.607-1.087 4.105z" fill="#a57d52"/><path d="m20 11.816v-1.634c0-1.525-.415-2.947-1.125-4.169.042-.002.082-.013.125-.013 1.654 0 3 1.346 3 3 0 1.302-.839 2.401-2 2.816z" fill="#a57d52"/><circle cx="15" cy="11" fill="#323232" r="1"/></svg>