<svg enable-background="new 0 0 24 24" viewBox="0 0 24 24" xmlns="http://www.w3.org/2000/svg"><path d="m9.953 0h6.047v3h-6.047z" fill="#8c5a3c"/><path d="m19.1 7.372c-.739-.634-1.325-1.457-1.638-2.372h.491c.552 0 1-.448 1-1s-.448-1-1-1c0 0-2.37 0-4.953 0s-6.142 0-6.5 0c-1.93 0-3.5 1.57-3.5 3.5 0 1.5.954 2.773 2.284 3.27-.186.552-.284 1.137-.284 1.732v10.498c0 1.104.896 2 2 2h12c1.104 0 2-.896 2-2v-10.498c0-1.587-.694-3.096-1.9-4.13zm-14.1-.872c0-.827.673-1.5 1.5-1.5.71 0 1.303.497 1.458 1.16-.295.45-.65.862-1.058 1.212-.218.187-.412.393-.595.608-.735-.097-1.305-.72-1.305-1.48z" fill="#c1b474"/><path d="m8 12h10v9h-10z" fill="#503c1d"/></svg>