<svg width="48" height="48" viewBox="0 0 48 48" fill="none" xmlns="http://www.w3.org/2000/svg">
<g opacity="0.9">
<path d="M6.37143 18.58L7.13643 18.64H9.59643C10.1864 18.64 11.0014 18.66 12.0414 18.7C12.0414 18.74 12.0314 18.76 12.0114 18.76V18.67L12.1914 18.76H13.4364C13.5064 18.76 13.6614 18.91 13.9014 19.21V19.345L13.8564 19.6H13.9164L13.7964 19.9H13.8564L13.6764 20.62H13.7364C13.5264 21.78 13.3664 22.54 13.2564 22.9H13.3164L13.1364 23.5C13.1664 23.5 13.1814 23.55 13.1814 23.65C13.1414 23.65 13.1214 23.64 13.1214 23.62H13.1964C12.9064 24.89 12.7214 25.875 12.6414 26.575L12.2514 26.89C11.5514 26.85 10.9864 26.83 10.5564 26.83C10.2064 26.83 10.0314 26.615 10.0314 26.185V26.065C10.2114 24.555 10.3414 23.8 10.4214 23.8L10.3914 23.725C10.5914 22.505 10.6914 21.86 10.6914 21.79H8.69643C8.61643 21.79 8.53643 21.81 8.45643 21.85L8.33643 21.79C8.27643 21.83 8.18143 21.85 8.05143 21.85V21.82L7.99143 21.85H7.61643C7.35643 21.85 6.95143 21.87 6.40143 21.91C6.14143 21.65 6.01143 21.475 6.01143 21.385C6.01143 21.185 6.11143 20.39 6.31143 19H6.37143C6.37143 19.02 6.34643 19.03 6.29643 19.03L6.37143 18.58ZM6.82143 19.12V19.06H6.89643L6.53643 20.86H6.61143L6.52143 21.04V21.34C8.45143 21.3 9.73643 21.28 10.3764 21.28C10.4264 21.28 10.6314 21.26 10.9914 21.22L11.3364 21.625C11.2864 21.705 11.2614 21.75 11.2614 21.76H11.3364C11.2264 22.14 11.1614 22.33 11.1414 22.33C11.1414 22.31 11.1614 22.3 11.2014 22.3C11.2014 22.35 10.9814 23.385 10.5414 25.405V25.48H10.6614L10.6014 25.945V26.32H10.6764C11.0164 26.32 11.3764 26.3 11.7564 26.26C11.9164 26.3 12.0464 26.32 12.1464 26.32L12.1914 26.23C12.1914 26.23 12.1664 26.23 12.1164 26.23C12.2064 25.99 12.2514 25.83 12.2514 25.75H12.1764C12.2564 25.53 12.3814 25.055 12.5514 24.325L12.4914 24.205L13.2714 20.485L13.2114 20.38V20.02C13.2914 20.02 13.3314 20.02 13.3314 20.02L13.2714 19.885C13.3114 19.805 13.3314 19.75 13.3314 19.72L13.2714 19.585C13.3114 19.505 13.3314 19.44 13.3314 19.39C12.3314 19.29 11.4864 19.19 10.7964 19.09H10.7364C8.89643 19.17 7.87643 19.21 7.67643 19.21H7.55643C7.20643 19.21 6.96143 19.18 6.82143 19.12ZM15.0564 17.095C15.2864 17.185 15.9064 17.29 16.9164 17.41L17.0364 17.35C17.6764 17.35 17.9964 17.49 17.9964 17.77C18.0264 17.77 18.0664 17.845 18.1164 17.995C17.9764 18.695 17.8764 19.065 17.8164 19.105C17.8164 19.095 17.8364 19.09 17.8764 19.09C17.7164 20.21 17.5614 20.99 17.4114 21.43C17.4414 21.43 17.4564 21.48 17.4564 21.58C17.4164 21.58 17.3964 21.57 17.3964 21.55C17.4364 21.55 17.4564 21.6 17.4564 21.7C17.4164 21.7 17.3964 21.69 17.3964 21.67H19.0314C19.1414 21.69 19.1964 21.745 19.1964 21.835V22.435C19.1964 23.545 19.0214 24.1 18.6714 24.1C17.5014 24.28 16.9164 24.445 16.9164 24.595C16.9164 24.735 16.9064 24.82 16.8864 24.85H16.9314C16.8414 25.14 16.7564 25.915 16.6764 27.175C16.7164 27.435 16.7364 27.695 16.7364 27.955V28.84L16.8114 28.975C16.5614 29.255 16.2764 29.41 15.9564 29.44C15.8864 29.4 15.8314 29.38 15.7914 29.38C15.4814 29.38 14.9114 29.4 14.0814 29.44C13.9514 29.12 13.8864 28.925 13.8864 28.855C13.9264 28.095 14.0664 26.23 14.3064 23.26H14.2914V23.17C14.3414 23.17 14.4864 21.685 14.7264 18.715C14.8364 17.835 14.9464 17.295 15.0564 17.095ZM15.4014 17.86C15.2114 18.53 15.1164 19.11 15.1164 19.6L15.1764 19.735C15.0564 20.125 14.9164 21.46 14.7564 23.74H14.6964C14.6964 23.72 14.7164 23.71 14.7564 23.71L14.4564 26.68C14.4964 26.76 14.5164 26.825 14.5164 26.875C14.4864 27.225 14.4464 27.4 14.3964 27.4L14.4564 27.775V28.255L14.3964 28.93H14.4114C14.9914 28.93 15.4314 28.89 15.7314 28.81C15.8114 28.85 15.8914 28.87 15.9714 28.87C15.9914 28.87 16.0564 28.855 16.1664 28.825V28.555C16.1664 27.475 16.2064 26.52 16.2864 25.69C16.2464 25.61 16.2264 25.54 16.2264 25.48L16.3464 25.255L16.2864 25.135C16.3264 25.055 16.3464 24.99 16.3464 24.94H16.2864C16.2864 24.2 16.6214 23.83 17.2914 23.83C18.1814 23.67 18.6264 23.525 18.6264 23.395C18.7464 22.795 18.8414 22.39 18.9114 22.18L17.1264 22.3C17.1264 22.2 17.0064 22.03 16.7664 21.79C16.7664 21.71 16.9014 21.28 17.1714 20.5H17.1114C17.2414 20.16 17.3064 19.94 17.3064 19.84C17.2664 19.84 17.2464 19.795 17.2464 19.705L17.3664 19.645C17.3364 19.495 17.2914 19.42 17.2314 19.42C17.3414 18.84 17.4214 18.55 17.4714 18.55C17.4814 18.55 17.4864 18.545 17.4864 18.535C17.5264 18.185 17.5464 18 17.5464 17.98H17.4114C16.6014 17.9 15.9314 17.86 15.4014 17.86ZM24.8806 16.795H25.0456C25.2856 16.885 25.8406 17.235 26.7106 17.845H26.9206V18.235C26.9206 18.315 26.9156 18.355 26.9056 18.355L26.9356 18.415C26.4856 18.905 26.2606 19.22 26.2606 19.36C26.2206 19.36 26.2006 19.35 26.2006 19.33C26.5906 19.79 26.9156 20.28 27.1756 20.8C27.2656 20.8 27.5306 21.175 27.9706 21.925C28.9106 22.955 29.3956 23.63 29.4256 23.95L29.3356 23.995L29.3656 24.07V24.19C29.0456 24.19 28.7956 24.26 28.6156 24.4L28.5556 24.265L28.4956 24.31H27.5356C27.3256 24.31 27.0656 24.325 26.7556 24.355C26.2056 24.355 25.8506 24.07 25.6906 23.5C25.0206 22.47 24.6856 21.865 24.6856 21.685H24.7306L23.8606 23.215C23.6806 23.755 23.5506 24.025 23.4706 24.025C23.4706 23.985 23.5056 23.965 23.5756 23.965C23.3056 24.415 23.0856 24.64 22.9156 24.64L22.3606 24.58C22.2906 24.58 22.2206 24.6 22.1506 24.64C21.4406 24.59 20.9506 24.535 20.6806 24.475L20.3506 24.535L19.8706 24.46L19.9606 24.295V24.31C19.8506 24.31 19.7956 24.25 19.7956 24.13V24.055C21.1956 21.985 22.4606 20.2 23.5906 18.7C24.0406 18.11 24.4706 17.475 24.8806 16.795ZM25.1356 17.425C24.7356 17.975 24.3306 18.495 23.9206 18.985C23.9206 19.115 23.6956 19.41 23.2456 19.87C23.2456 20.01 23.0256 20.31 22.5856 20.77C22.5856 20.89 22.1756 21.505 21.3556 22.615L20.4706 23.98V23.965C21.0006 24.005 21.2856 24.04 21.3256 24.07C21.3356 24.07 21.3806 24.055 21.4606 24.025C21.9506 24.055 22.3406 24.07 22.6306 24.07H22.6906C22.9106 24.07 23.1206 23.775 23.3206 23.185L23.2906 23.125C23.4806 22.835 23.5756 22.6 23.5756 22.42L23.7256 22.495L24.1456 21.805C24.1356 21.805 24.1306 21.745 24.1306 21.625C24.2306 21.625 24.3106 21.5 24.3706 21.25C24.5806 21.17 24.7306 21.13 24.8206 21.13C25.0706 21.33 25.3356 21.755 25.6156 22.405H25.7356L25.6456 22.57L26.3056 23.56C26.3056 23.68 26.6206 23.76 27.2506 23.8C27.5806 23.76 27.7456 23.71 27.7456 23.65L27.9406 23.74H28.7506L27.6406 22.285C26.5706 20.655 25.9206 19.74 25.6906 19.54V19.45L25.7056 19.405C25.6956 19.405 25.6906 19.35 25.6906 19.24H25.7056L25.6756 19.18C25.9656 18.7 26.1356 18.46 26.1856 18.46C26.1856 18.42 26.2306 18.35 26.3206 18.25C25.5506 17.69 25.1556 17.41 25.1356 17.41V17.425ZM28.1056 25.315C28.4556 25.385 28.6306 25.56 28.6306 25.84V27.1C28.6306 27.31 28.5856 27.565 28.4956 27.865H28.3456C28.2756 27.865 28.2406 27.855 28.2406 27.835C28.2006 27.855 28.1556 27.865 28.1056 27.865L21.2056 28.045C21.0256 28.045 20.8906 27.955 20.8006 27.775C20.8006 27.745 20.8206 27.66 20.8606 27.52C20.8406 27.15 20.7906 26.965 20.7106 26.965C20.8106 26.775 20.8606 26.54 20.8606 26.26V25.675L21.2656 25.615C21.3356 25.615 21.3706 25.63 21.3706 25.66L21.6856 25.615C23.3156 25.615 24.4956 25.575 25.2256 25.495C25.3856 25.535 25.5456 25.555 25.7056 25.555H26.0056C26.3456 25.475 27.0456 25.395 28.1056 25.315ZM21.3106 26.125L21.3706 26.245C21.3306 26.675 21.3106 26.92 21.3106 26.98C21.3506 27.33 21.3706 27.525 21.3706 27.565L21.4306 27.535C21.5506 27.535 22.0906 27.575 23.0506 27.655C23.1806 27.575 23.3056 27.535 23.4256 27.535H23.8006L23.8606 27.565C23.8606 27.545 23.9106 27.535 24.0106 27.535C24.0106 27.575 24.0006 27.595 23.9806 27.595V27.535C24.0806 27.535 24.1306 27.55 24.1306 27.58L24.3256 27.535C24.7356 27.535 25.8556 27.475 27.6856 27.355H27.8056L28.1506 27.28C28.1506 27.33 28.1406 27.355 28.1206 27.355V25.945L28.1506 25.885C28.1506 25.885 28.1106 25.865 28.0306 25.825C23.9106 26.025 21.6706 26.125 21.3106 26.125ZM35.4502 17.905C35.7402 17.945 35.9652 17.965 36.1252 17.965C36.4052 17.965 36.8502 17.945 37.4602 17.905C37.6002 18.025 37.7702 18.085 37.9702 18.085C37.9302 18.785 37.8752 19.245 37.8052 19.465H37.8652L37.7452 19.945H37.7902C37.7502 20.445 37.7202 20.695 37.7002 20.695L37.7302 20.755V21.19C37.7302 21.31 37.7002 21.415 37.6402 21.505H37.6702C37.6302 21.925 37.6002 22.135 37.5802 22.135L37.6102 22.195V22.39C37.6102 22.58 37.5752 22.885 37.5052 23.305H37.5802C37.4802 23.515 37.4302 23.85 37.4302 24.31C37.4302 24.32 37.4602 24.325 37.5202 24.325L37.4302 24.505C37.4302 24.505 37.4602 24.505 37.5202 24.505L37.4302 24.685V26.11C37.4302 26.18 37.4202 26.215 37.4002 26.215L37.4302 26.29C37.3902 26.37 37.3702 26.445 37.3702 26.515C33.4002 26.755 31.1202 26.875 30.5302 26.875C30.1902 26.675 30.0202 26.385 30.0202 26.005H30.0502L30.0202 25.945V24.01C30.0202 22.4 30.0602 20.895 30.1402 19.495H30.0652C30.2052 18.635 30.3252 18.205 30.4252 18.205C31.6652 18.085 32.4202 18.025 32.6902 18.025C32.6902 18.145 32.7902 18.205 32.9902 18.205V18.49L33.0652 18.835H33.0202C33.0402 18.875 33.0502 18.92 33.0502 18.97C33.0102 19.66 32.9902 20.045 32.9902 20.125H33.0802L32.9902 20.305V20.35L33.0502 20.725H33.6652C33.7552 20.725 33.8002 20.7 33.8002 20.65L34.1452 20.725H35.0002L35.0452 20.755L35.0002 20.53V19.51C35.0002 19.25 35.0402 18.97 35.1202 18.67L35.0602 18.55C35.1202 18.33 35.2502 18.115 35.4502 17.905ZM35.6902 18.535C35.6502 18.915 35.5952 19.185 35.5252 19.345C35.5552 19.345 35.5702 19.395 35.5702 19.495C35.5302 19.495 35.5102 19.485 35.5102 19.465H35.5702C35.5702 19.565 35.5502 19.615 35.5102 19.615C35.5502 20.055 35.5702 20.38 35.5702 20.59V21.115C35.4002 21.115 35.2502 21.175 35.1202 21.295L34.8052 21.235H33.6052L32.8402 21.295C32.8402 21.255 32.7202 21.125 32.4802 20.905V20.29C32.4802 20.22 32.4902 20.185 32.5102 20.185L32.4802 20.125C32.5202 19.515 32.5402 19.07 32.5402 18.79C32.5402 18.62 32.5152 18.535 32.4652 18.535C31.3352 18.605 30.7702 18.655 30.7702 18.685C30.7302 18.755 30.7102 18.815 30.7102 18.865C30.7502 18.865 30.7702 18.915 30.7702 19.015C30.7302 19.015 30.7102 19.005 30.7102 18.985H30.7852L30.6652 19.405H30.7252C30.6752 19.625 30.6402 19.735 30.6202 19.735L30.6502 19.795V19.87C30.6502 19.94 30.6402 19.975 30.6202 19.975L30.6502 20.05C30.6102 20.24 30.5802 20.335 30.5602 20.335L30.5902 20.395V20.47C30.5902 20.54 30.5802 20.575 30.5602 20.575L30.5902 20.635V21.07C30.5902 21.14 30.5802 21.175 30.5602 21.175L30.5902 21.235V21.31C30.5902 21.38 30.5702 21.415 30.5302 21.415C30.5302 21.395 30.5552 21.385 30.6052 21.385C30.5152 21.925 30.4502 22.72 30.4102 23.77C30.5102 25.46 30.6152 26.305 30.7252 26.305H31.3852C32.2252 26.305 33.7402 26.225 35.9302 26.065C35.9302 26.105 35.9202 26.125 35.9002 26.125C35.9002 26.085 35.9502 26.065 36.0502 26.065V26.095L36.1102 26.065H36.8902L36.8602 26.005C37.0902 22.165 37.2402 20.245 37.3102 20.245L37.2802 20.185V20.095L37.3102 20.035H37.2802C37.3202 19.695 37.3602 19.525 37.4002 19.525C37.4002 19.545 37.3802 19.555 37.3402 19.555L37.4602 18.475H37.1452C36.8052 18.475 36.3202 18.495 35.6902 18.535ZM33.0802 22.705H33.8452C34.0452 22.705 34.3302 22.725 34.7002 22.765C34.7002 22.725 34.7502 22.705 34.8502 22.705V22.735L34.9252 22.705C35.1952 22.775 35.3702 22.885 35.4502 23.035C35.4502 23.115 35.4352 23.155 35.4052 23.155L35.4502 23.41V23.95C35.4502 24.05 35.4302 24.13 35.3902 24.19C35.4302 24.25 35.4502 24.33 35.4502 24.43V24.715L34.9852 24.775H34.9252C34.3452 24.775 33.6802 24.815 32.9302 24.895C32.6702 24.675 32.5402 24.52 32.5402 24.43C32.5702 23.32 32.6652 22.765 32.8252 22.765H33.0202L33.0802 22.795V22.705ZM33.1252 23.215L33.1702 23.47C33.1702 23.52 33.1302 23.74 33.0502 24.13V24.385H33.6052C33.6352 24.385 33.7952 24.345 34.0852 24.265H34.8802V23.275H34.1452C33.9352 23.275 33.5802 23.295 33.0802 23.335V23.215H33.1252ZM39.0952 17.155H39.3052C40.7952 17.275 41.6352 17.335 41.8252 17.335H41.9902V17.44C41.9202 18.23 41.8452 18.625 41.7652 18.625C41.7552 18.625 41.7502 18.63 41.7502 18.64C41.5902 20.31 41.4702 21.145 41.3902 21.145C41.3902 21.125 41.4102 21.115 41.4502 21.115L41.3902 21.58V21.925H41.2702C41.2402 22.565 41.2102 22.885 41.1802 22.885L41.2102 22.945V23.155L41.1802 23.215H41.2252L41.0452 24.115H41.1202C41.0202 24.335 40.9502 24.555 40.9102 24.775H40.9852C40.9352 24.995 40.9002 25.105 40.8802 25.105L40.9102 25.18L40.8502 25.315C40.8502 25.325 40.8702 25.4 40.9102 25.54C40.8702 26.21 40.8202 26.545 40.7602 26.545L40.7902 26.605C40.7302 27.395 40.6702 27.88 40.6102 28.06C40.6502 28.13 40.6702 28.19 40.6702 28.24C40.6702 28.45 40.6252 28.745 40.5352 29.125H38.7652L38.0002 29.185C38.0002 29.025 37.9952 28.945 37.9852 28.945V28.855C38.0652 28.855 38.1902 26.995 38.3602 23.275C38.4002 23.275 38.4202 23.285 38.4202 23.305H38.3302C38.3902 23.195 38.4202 23.12 38.4202 23.08C38.6202 20.25 38.8452 18.275 39.0952 17.155ZM39.4102 17.995H39.4852C39.4152 18.375 39.3602 18.565 39.3202 18.565L39.3502 18.625C39.3502 18.715 39.3202 18.825 39.2602 18.955L39.1402 19.045C39.1702 19.045 39.1202 19.985 38.9902 21.865C38.9002 21.865 38.8402 22.17 38.8102 22.78C38.8502 22.94 38.8702 23.095 38.8702 23.245C38.8302 23.245 38.8102 23.235 38.8102 23.215H38.9002L38.8102 23.395C38.8102 23.705 38.7502 24.3 38.6302 25.18L38.6902 25.6C38.6902 25.66 38.6302 26.585 38.5102 28.375C38.5502 28.375 38.5702 28.425 38.5702 28.525H38.5402C38.5602 28.565 38.5702 28.595 38.5702 28.615C39.1402 28.655 39.5652 28.675 39.8452 28.675H40.1002C40.4602 25.405 40.8002 22.565 41.1202 20.155H41.1802C41.1802 20.175 41.1602 20.185 41.1202 20.185L41.3602 18.445H41.2702C41.3702 18.265 41.4202 18.09 41.4202 17.92V17.845L39.9502 17.725V17.815C39.8402 17.755 39.7652 17.725 39.7252 17.725C39.5152 17.725 39.4102 17.815 39.4102 17.995Z" fill="black"/>
</g>
</svg>
