<svg width="48" height="48" viewBox="0 0 48 48" fill="none" xmlns="http://www.w3.org/2000/svg">
<g opacity="0.9">
<path d="M17.7787 20.2886H20.1615C20.2226 20.2886 20.2763 20.3105 20.3227 20.3569C20.369 20.4009 20.391 20.4473 20.391 20.4937V21.3457H18.0961C18.0644 21.3457 18.0497 21.3677 18.0497 21.4092V21.6094H20.391V21.8462C20.391 21.9487 20.3349 22 20.2201 22H17.5956V21.0894C17.5956 20.9868 17.6493 20.9355 17.7592 20.9355H19.9979V20.7817C19.9979 20.7378 19.9809 20.7158 19.9442 20.7158H17.5956V20.4424C17.5956 20.3398 17.6566 20.2886 17.7787 20.2886ZM18.7577 20.2593V20.0371H17.3783V19.7344C17.3783 19.7148 17.3881 19.6978 17.4052 19.6831C17.4223 19.6685 17.4442 19.6611 17.4687 19.6611H20.5839V19.8638C20.5839 19.9224 20.5644 19.9639 20.5277 19.9932C20.4936 20.0225 20.4521 20.0371 20.4032 20.0371H19.1435V20.1079C19.1435 20.1519 19.1264 20.186 19.0897 20.2153C19.0531 20.2446 19.0116 20.2593 18.9628 20.2593H18.7577ZM17.996 19.2217H20.0077C20.0346 19.2217 20.0492 19.207 20.0492 19.1802V19.0532H17.996V19.2217ZM20.0492 18.3525H20.225C20.2787 18.3525 20.3251 18.3721 20.3617 18.4087C20.3983 18.4453 20.4179 18.4917 20.4179 18.543V19.395C20.4179 19.4463 20.3983 19.4927 20.3617 19.5293C20.3251 19.5659 20.2787 19.5854 20.225 19.5854H17.6273V18.543C17.6273 18.4893 17.6469 18.4453 17.6835 18.4087C17.7201 18.3721 17.7665 18.3525 17.8178 18.3525H17.996V18.6943H20.0492V18.3525ZM22.7556 18.4233H21.9987V18.2402H21.7229C21.6911 18.2402 21.6667 18.25 21.6472 18.272C21.6252 18.2939 21.6154 18.3184 21.6154 18.3477V18.4233H20.966C20.9367 18.4233 20.9099 18.4331 20.8903 18.4526C20.8684 18.4746 20.8586 18.499 20.8586 18.5308V18.8066H21.2102C21.0441 18.9653 20.9611 19.1606 20.9611 19.3901V19.4365C20.9611 19.6611 21.0393 19.8516 21.198 20.0078C21.3542 20.1665 21.5446 20.2446 21.7668 20.2446H21.8474C22.0695 20.2446 22.26 20.1665 22.4162 20.0078C22.5749 19.8516 22.653 19.6611 22.653 19.4365V19.3901C22.653 19.1606 22.57 18.9653 22.404 18.8066H22.6481C22.6774 18.8066 22.7019 18.7969 22.7238 18.7749C22.7458 18.7554 22.7556 18.7285 22.7556 18.6992V18.4233ZM22.2697 19.4365C22.2697 19.5537 22.2282 19.6538 22.1452 19.7368C22.0622 19.8198 21.9621 19.8589 21.8474 19.8589H21.7668C21.6496 19.8589 21.552 19.8198 21.4689 19.7368C21.3859 19.6538 21.3444 19.5537 21.3444 19.4365V19.3901C21.3444 19.2729 21.3859 19.1729 21.4689 19.0898C21.552 19.0068 21.6496 18.9678 21.7668 18.9678H21.8474C21.9621 18.9678 22.0622 19.0068 22.1452 19.0898C22.2282 19.1729 22.2697 19.2729 22.2697 19.3901V19.4365ZM23.632 18.3379H23.8542V19.666V20.0664C23.8542 20.1006 23.842 20.1299 23.8176 20.1543C23.7956 20.1763 23.7688 20.1885 23.7321 20.1885H23.4807V19.3755H23.2292V20.0664C23.2292 20.1006 23.217 20.1299 23.1926 20.1543C23.1706 20.1763 23.1413 20.1885 23.1071 20.1885H22.8557V18.4868C22.8557 18.4453 22.8703 18.4111 22.8996 18.3818C22.9265 18.3525 22.9631 18.3379 23.0046 18.3379H23.2292V18.9775H23.4807V18.4868C23.4807 18.4453 23.4953 18.4111 23.5271 18.3818C23.5539 18.3525 23.5881 18.3379 23.632 18.3379ZM22.9582 22H21.6936C21.4641 22 21.2663 21.917 21.1027 21.7534C20.9392 21.5874 20.8586 21.3896 20.8586 21.1577C20.8586 20.9258 20.9392 20.7256 21.1027 20.562C21.2663 20.396 21.4641 20.3154 21.6936 20.3154H22.9582C23.1877 20.3154 23.3855 20.396 23.5466 20.562C23.7102 20.7256 23.7932 20.9258 23.7932 21.1577C23.7932 21.3896 23.7102 21.5874 23.5466 21.7534C23.3855 21.917 23.1877 22 22.9582 22ZM21.6936 20.7598C21.5837 20.7598 21.4934 20.7988 21.4152 20.877C21.3396 20.9551 21.3005 21.0479 21.3005 21.1577C21.3005 21.2676 21.3396 21.3604 21.4152 21.4385C21.4934 21.5142 21.5837 21.5532 21.6936 21.5532H22.9582C23.0656 21.5532 23.1584 21.5142 23.2365 21.4385C23.3122 21.3604 23.3513 21.2676 23.3513 21.1577C23.3513 21.0479 23.3122 20.9551 23.2365 20.877C23.1584 20.7988 23.0656 20.7598 22.9582 20.7598H21.6936ZM26.2822 18.3867V18.7017C26.2822 18.7358 26.27 18.7651 26.2456 18.7871C26.2236 18.8115 26.1943 18.8237 26.1602 18.8237H25.8843C26.0723 19.0044 26.1675 19.2241 26.1675 19.4829V21.0869C26.1675 21.3384 26.0771 21.5532 25.8989 21.7314C25.7207 21.9097 25.5059 22 25.252 22H25.1641C24.9102 22 24.6953 21.9097 24.5171 21.7314C24.3389 21.5532 24.2485 21.3384 24.2485 21.0869V19.4829C24.2485 19.2241 24.3438 19.0044 24.5317 18.8237H24.1338V18.5088C24.1338 18.4746 24.146 18.4478 24.1704 18.4233C24.1924 18.3989 24.2217 18.3867 24.2559 18.3867H24.9907V18.3037C24.9907 18.2695 25.0029 18.2402 25.0249 18.2183C25.0493 18.1938 25.0786 18.1816 25.1104 18.1816H25.4253V18.3867H26.2822ZM25.7305 21.0869V19.4829C25.7305 19.3511 25.6841 19.2388 25.5913 19.1436C25.4985 19.0508 25.3838 19.0044 25.252 19.0044H25.1641C25.0298 19.0044 24.9175 19.0508 24.8247 19.1436C24.7319 19.2388 24.6855 19.3511 24.6855 19.4829V21.0869C24.6855 21.2188 24.7319 21.3311 24.8247 21.4238C24.9175 21.5166 25.0298 21.5654 25.1641 21.5654H25.252C25.3838 21.5654 25.4985 21.5166 25.5913 21.4238C25.6841 21.3311 25.7305 21.2188 25.7305 21.0869ZM26.812 18.3281C26.8511 18.3281 26.8853 18.3428 26.9121 18.3696C26.939 18.3965 26.9536 18.4307 26.9536 18.4722V19.3853H27.2173C27.2588 19.3853 27.293 19.3999 27.3198 19.4268C27.3467 19.4536 27.3613 19.4878 27.3613 19.5269V19.8394H26.9536V21.9976H26.6411C26.6094 21.9976 26.5801 21.9854 26.5581 21.9634C26.5361 21.9414 26.5239 21.9121 26.5239 21.8804V18.3281H26.812ZM29.1644 19.6807V18.8164C29.1644 18.7847 29.1497 18.77 29.118 18.77H28.0657C28.034 18.77 28.0193 18.7847 28.0193 18.8164V19.7246H29.118C29.1497 19.7246 29.1644 19.71 29.1644 19.6807ZM27.8289 18.3477H29.3792C29.4402 18.3477 29.4915 18.3696 29.533 18.4111C29.577 18.4526 29.5989 18.5039 29.5989 18.5649V19.9321C29.5989 19.9932 29.577 20.0444 29.533 20.0859C29.4915 20.1274 29.4402 20.1494 29.3792 20.1494H27.6116V18.5649C27.6116 18.5039 27.6336 18.4526 27.6751 18.4111C27.7166 18.3696 27.7679 18.3477 27.8289 18.3477ZM30.1824 18.7383V18.5161C30.1824 18.4697 30.1995 18.4282 30.2361 18.3965C30.2703 18.3647 30.3118 18.3477 30.3606 18.3477H30.5853V20.0713C30.5853 20.0933 30.5779 20.1128 30.5608 20.1299C30.5438 20.147 30.5218 20.1543 30.4974 20.1543H30.1824V19.8467H29.7991V19.6172C29.7991 19.5708 29.8162 19.5317 29.8528 19.5C29.887 19.4658 29.9285 19.4487 29.9773 19.4487H30.1824V19.1362H29.7991V18.9067C29.7991 18.8604 29.8162 18.8213 29.8528 18.7896C29.887 18.7554 29.9285 18.7383 29.9773 18.7383H30.1824ZM28.0242 20.4595L28.0315 21.5703L30.3826 21.5605L30.3851 21.8096C30.3851 21.8584 30.368 21.8999 30.3313 21.9365C30.2947 21.9707 30.2508 21.9878 30.1971 21.9878L27.8021 22C27.7483 22 27.7044 21.9829 27.6653 21.9487C27.6312 21.9146 27.6116 21.8706 27.6116 21.8218L27.6043 20.5571C27.6043 20.5327 27.6141 20.5083 27.6312 20.4888C27.6482 20.4717 27.6702 20.4619 27.6971 20.4619L28.0242 20.4595ZM8.19111 27.1445H6.5041C6.45771 27.1445 6.41621 27.1299 6.38447 27.0981C6.35273 27.0664 6.33564 27.0298 6.33564 26.9858V25.4136C6.33564 25.3916 6.34297 25.3721 6.36006 25.355C6.37715 25.3379 6.39668 25.3306 6.41865 25.3306H6.77266V26.6538C6.77266 26.688 6.78975 26.7051 6.82148 26.7051H8.35713V26.9858C8.35713 27.0298 8.34004 27.0664 8.3083 27.0981C8.27656 27.1299 8.2375 27.1445 8.19111 27.1445ZM9.39717 26.0459L9.1457 26.0435V25.3379H8.89668C8.85762 25.3379 8.821 25.3525 8.7917 25.3818C8.7624 25.4111 8.74775 25.4453 8.74775 25.4868V27.147H9.02363C9.05537 27.147 9.08467 27.1348 9.10908 27.1104C9.1335 27.0884 9.1457 27.0591 9.1457 27.0249V26.4414H9.54609V26.1948C9.54609 26.1533 9.53144 26.1167 9.50215 26.0874C9.47285 26.0605 9.43867 26.0459 9.39717 26.0459ZM8.76484 28.5947V27.7524C8.76484 27.7256 8.75264 27.7109 8.72578 27.7109H6.74336C6.72139 27.7109 6.70918 27.7256 6.70918 27.7524V28.6362H8.72578C8.75264 28.6362 8.76484 28.6216 8.76484 28.5947ZM6.51143 27.3472H8.96016C9.01143 27.3472 9.05537 27.3667 9.09199 27.4058C9.12861 27.4448 9.1457 27.4912 9.1457 27.5449V28.7998C9.1457 28.856 9.12861 28.9023 9.09199 28.9414C9.05537 28.9805 9.01143 29 8.96016 29H6.32588V27.5449C6.32588 27.4912 6.34297 27.4448 6.37959 27.4058C6.41621 27.3667 6.46016 27.3472 6.51143 27.3472ZM12.0986 26.8247V25.5332C12.0986 25.4819 12.1182 25.4404 12.1548 25.4038C12.1938 25.3672 12.2402 25.3501 12.2915 25.3501H12.4966V28.9365C12.4966 28.9609 12.4868 28.9829 12.4673 29C12.4478 29.0171 12.4258 29.0269 12.3989 29.0269H12.0986V27.2642H11.7886V27.0054C11.7886 26.9565 11.8081 26.915 11.8472 26.8784C11.8862 26.8418 11.9326 26.8247 11.9839 26.8247H12.0986ZM12.5942 29.0098V25.5112C12.5942 25.4648 12.6113 25.4258 12.6479 25.394C12.6821 25.3623 12.7236 25.3477 12.77 25.3477H12.9897V28.9292C12.9897 28.9512 12.98 28.9707 12.9629 28.9878C12.9458 29.0024 12.9263 29.0098 12.9019 29.0098H12.5942ZM10.8291 29H10.6973C10.4507 29 10.2383 28.9121 10.0601 28.7363C9.88428 28.5581 9.79639 28.3457 9.79639 28.0991V26.251C9.79639 26.002 9.88428 25.7896 10.0601 25.6138C10.2383 25.438 10.4507 25.3501 10.6973 25.3501H10.8291C11.0781 25.3501 11.2905 25.438 11.4663 25.6138C11.6421 25.7896 11.73 26.002 11.73 26.251V28.0991C11.73 28.3457 11.6421 28.5581 11.4663 28.7363C11.2905 28.9121 11.0781 29 10.8291 29ZM10.7021 25.8066C10.5679 25.8066 10.4531 25.853 10.3604 25.9482C10.2651 26.041 10.2187 26.1558 10.2187 26.29V28.0601C10.2187 28.1943 10.2651 28.3066 10.3604 28.4019C10.4531 28.4946 10.5679 28.5435 10.7021 28.5435H10.8267C10.9585 28.5435 11.0732 28.4946 11.1685 28.4019C11.2612 28.3066 11.3101 28.1943 11.3101 28.0601V26.29C11.3101 26.1558 11.2612 26.041 11.1685 25.9482C11.0732 25.853 10.9585 25.8066 10.8267 25.8066H10.7021ZM15.3323 26.8345V25.521C15.3323 25.4746 15.3494 25.438 15.3836 25.4062C15.4153 25.3745 15.4568 25.3599 15.5057 25.3599H15.7229V28.9268C15.7229 28.9487 15.7156 28.9683 15.6985 28.9854C15.6814 29 15.6619 29.0073 15.6375 29.0073H15.3323V27.2471H15.0491V26.998C15.0491 26.9517 15.0662 26.915 15.1028 26.8833C15.1346 26.8516 15.1761 26.8345 15.2249 26.8345H15.3323ZM15.8353 29.0073V25.5088C15.8353 25.4624 15.8523 25.4233 15.889 25.3916C15.9231 25.3599 15.9646 25.3452 16.011 25.3452H16.2308V28.9268C16.2308 28.9487 16.221 28.9683 16.2039 28.9854C16.1868 29 16.1673 29.0073 16.1429 29.0073H15.8353ZM14.5145 29V25.6992H13.2571V25.4917C13.2571 25.4404 13.2767 25.3965 13.3133 25.3599C13.3499 25.3257 13.3963 25.3086 13.4524 25.3086H14.7342C14.7879 25.3086 14.8343 25.3257 14.8733 25.3599C14.91 25.3965 14.9295 25.4404 14.9295 25.4917V28.9048C14.9295 28.9292 14.9197 28.9512 14.9002 28.9731C14.8831 28.9902 14.8611 29 14.8343 29H14.5145ZM20.3617 27.2397H20.2738C20.2665 27.2422 20.2592 27.2422 20.2519 27.2422H17.6859V27.0298C17.6859 26.9883 17.703 26.9517 17.7348 26.9199C17.7665 26.8882 17.8056 26.8735 17.852 26.8735H18.6039V26.3218C18.6039 26.2778 18.621 26.2412 18.6552 26.2119C18.6869 26.1802 18.726 26.1655 18.7724 26.1655H19.0019V26.8735H20.1103V25.5186C20.1103 25.4771 20.1249 25.4429 20.1566 25.4136C20.1835 25.3843 20.2201 25.3696 20.2616 25.3696H20.4838V26.1191H20.6815C20.723 26.1191 20.7597 26.1338 20.789 26.1631C20.8158 26.1924 20.8305 26.2266 20.8305 26.2681V26.5171H20.4838V27.1177C20.4838 27.1494 20.4716 27.1787 20.4496 27.2031C20.4252 27.2275 20.3959 27.2397 20.3617 27.2397ZM19.5243 26.6294V25.7456H17.7519V25.499C17.7519 25.4575 17.7665 25.4233 17.7934 25.3916C17.8202 25.3623 17.852 25.3477 17.891 25.3477H19.7807C19.8197 25.3477 19.8515 25.3623 19.8808 25.3916C19.9052 25.4233 19.9198 25.4575 19.9198 25.499V26.5488C19.9198 26.5708 19.9125 26.5903 19.8979 26.605C19.8856 26.6221 19.8686 26.6294 19.849 26.6294H19.5243ZM18.1229 27.4521L18.1278 28.563L20.5058 28.5532V28.8022C20.5058 28.8511 20.4911 28.895 20.4569 28.9292C20.4252 28.9634 20.3861 28.9805 20.3397 28.9829L17.8837 28.9927C17.8349 28.9927 17.7958 28.9756 17.7616 28.9414C17.7299 28.9072 17.7152 28.8633 17.7128 28.8145L17.7079 27.5498C17.7079 27.5254 17.7152 27.501 17.7299 27.4814C17.747 27.4644 17.7665 27.4546 17.7885 27.4546L18.1229 27.4521ZM23.4465 28.5703V27.7769C23.4465 27.75 23.4343 27.7354 23.4074 27.7354H21.5227C21.5007 27.7354 21.4885 27.75 21.4885 27.7769V28.6118H23.4074C23.4343 28.6118 23.4465 28.5972 23.4465 28.5703ZM21.2419 27.3472H23.6906C23.7419 27.3472 23.7858 27.3667 23.8225 27.4058C23.8591 27.4448 23.8762 27.4912 23.8762 27.5449V28.7998C23.8762 28.856 23.8591 28.9023 23.8225 28.9414C23.7858 28.9805 23.7419 29 23.6906 29H21.0563V27.5449C21.0563 27.4912 21.0734 27.4448 21.1101 27.4058C21.1467 27.3667 21.1906 27.3472 21.2419 27.3472ZM23.9665 27.0249V25.3379H23.7175C23.6784 25.3379 23.6418 25.3525 23.6125 25.3818C23.5832 25.4111 23.5686 25.4453 23.5686 25.4868V27.147H23.8444C23.8762 27.147 23.9055 27.1348 23.9299 27.1104C23.9543 27.0884 23.9665 27.0591 23.9665 27.0249ZM22.4187 25.8042V25.3477H21.967V25.8042C21.967 26.0312 21.8937 26.229 21.7473 26.395C21.6032 26.561 21.4201 26.6636 21.1979 26.7026C21.1564 26.71 21.1223 26.7295 21.0954 26.7588C21.0686 26.7881 21.0563 26.8247 21.0563 26.8638V27.1665C21.53 27.1665 21.9084 26.9614 22.1916 26.5537C22.4162 26.8882 22.736 27.0884 23.1462 27.1543C23.195 27.1592 23.239 27.1445 23.2731 27.1128C23.3098 27.0811 23.3269 27.0396 23.3269 26.9907V26.7148C23.0754 26.7148 22.863 26.6245 22.6848 26.4487C22.5065 26.2705 22.4187 26.0557 22.4187 25.8042ZM26.5825 25.4893V28.9951H26.856C26.8926 28.9951 26.9219 28.9829 26.9487 28.9561C26.9756 28.9316 26.9878 28.8999 26.9878 28.8633V25.3281H26.7437C26.6973 25.3281 26.6606 25.3428 26.6289 25.3745C26.5972 25.4062 26.5825 25.4453 26.5825 25.4893ZM25.2471 29H25.1152C24.8687 29 24.6562 28.9121 24.478 28.7363C24.3022 28.5581 24.2144 28.3457 24.2144 28.0991V26.251C24.2144 26.002 24.3022 25.7896 24.478 25.6138C24.6562 25.438 24.8687 25.3501 25.1152 25.3501H25.2471C25.4961 25.3501 25.7085 25.438 25.8843 25.6138C26.0601 25.7896 26.1479 26.002 26.1479 26.251V28.0991C26.1479 28.3457 26.0601 28.5581 25.8843 28.7363C25.7085 28.9121 25.4961 29 25.2471 29ZM25.1201 25.8066C24.9858 25.8066 24.8711 25.853 24.7783 25.9482C24.6831 26.041 24.6367 26.1558 24.6367 26.29V28.0601C24.6367 28.1943 24.6831 28.3066 24.7783 28.4019C24.8711 28.4946 24.9858 28.5435 25.1201 28.5435H25.2446C25.3765 28.5435 25.4912 28.4946 25.5864 28.4019C25.6792 28.3066 25.728 28.1943 25.728 28.0601V26.29C25.728 26.1558 25.6792 26.041 25.5864 25.9482C25.4912 25.853 25.3765 25.8066 25.2446 25.8066H25.1201ZM29.9908 26.6807V25.8164C29.9908 25.7847 29.9762 25.77 29.9444 25.77H28.8922C28.8604 25.77 28.8458 25.7847 28.8458 25.8164V26.7246H29.9444C29.9762 26.7246 29.9908 26.71 29.9908 26.6807ZM28.6554 25.3477H30.2057C30.2667 25.3477 30.318 25.3696 30.3595 25.4111C30.4034 25.4526 30.4254 25.5039 30.4254 25.5649V26.9321C30.4254 26.9932 30.4034 27.0444 30.3595 27.0859C30.318 27.1274 30.2667 27.1494 30.2057 27.1494H28.4381V25.5649C28.4381 25.5039 28.4601 25.4526 28.5016 25.4111C28.5431 25.3696 28.5943 25.3477 28.6554 25.3477ZM31.5021 26.0459L31.2506 26.0435V25.3379H31.0016C30.9625 25.3379 30.9259 25.3525 30.8966 25.3818C30.8673 25.4111 30.8526 25.4453 30.8526 25.4868V27.147H31.1285C31.1603 27.147 31.1896 27.1348 31.214 27.1104C31.2384 27.0884 31.2506 27.0591 31.2506 27.0249V26.4414H31.651V26.1948C31.651 26.1533 31.6363 26.1167 31.607 26.0874C31.5777 26.0605 31.5436 26.0459 31.5021 26.0459ZM29.5611 29H28.5919C28.5553 29 28.526 28.9878 28.4991 28.9634C28.4723 28.939 28.4601 28.9097 28.4601 28.8755V27.396C28.4601 27.3521 28.482 27.3301 28.526 27.3301H28.8434V28.5898C28.8434 28.6167 28.8556 28.6289 28.8824 28.6289H29.6954V28.8755C29.6954 28.9097 29.6832 28.939 29.6563 28.9634C29.6295 28.9878 29.5978 29 29.5611 29ZM31.1993 27.7769C31.2237 27.7769 31.2457 27.7671 31.2652 27.7476C31.2823 27.728 31.2921 27.7036 31.2921 27.6768V27.4375H30.7037V27.3838C30.7037 27.3569 30.6939 27.3325 30.6769 27.313C30.6573 27.2935 30.6354 27.2837 30.6109 27.2837H30.3058V27.4375H29.8175C29.7906 27.4375 29.7687 27.4473 29.7516 27.4668C29.732 27.4863 29.7223 27.5107 29.7223 27.5376V27.7769H31.1993ZM30.7306 27.7988H30.2838C30.1275 27.7988 29.9957 27.8574 29.8858 27.9746C29.776 28.0918 29.7198 28.2334 29.7198 28.3994C29.7198 28.5654 29.776 28.707 29.8858 28.8242C29.9957 28.9414 30.1275 29 30.2838 29H30.7306C30.8868 29 31.0187 28.9414 31.1285 28.8242C31.2384 28.707 31.2945 28.5654 31.2945 28.3994C31.2945 28.2334 31.2384 28.0918 31.1285 27.9746C31.0187 27.8574 30.8868 27.7988 30.7306 27.7988ZM30.6476 28.6118H30.3668C30.3131 28.6118 30.2643 28.5923 30.2252 28.5508C30.1861 28.5093 30.1666 28.458 30.1666 28.3994C30.1666 28.3408 30.1861 28.2896 30.2252 28.248C30.2643 28.2065 30.3131 28.187 30.3668 28.187H30.6476C30.7037 28.187 30.7501 28.2065 30.7892 28.248C30.8282 28.2896 30.8478 28.3408 30.8478 28.3994C30.8478 28.458 30.8282 28.5093 30.7892 28.5508C30.7501 28.5923 30.7037 28.6118 30.6476 28.6118ZM34.4574 25.3281H34.1693V28.8804C34.1693 28.9121 34.1815 28.9414 34.2035 28.9634C34.2255 28.9854 34.2548 28.9976 34.2865 28.9976H34.599V26.8394H35.0067V26.5269C35.0067 26.4878 34.9921 26.4536 34.9652 26.4268C34.9384 26.3999 34.9042 26.3853 34.8627 26.3853H34.599V25.4722C34.599 25.4307 34.5844 25.3965 34.5575 25.3696C34.5307 25.3428 34.4965 25.3281 34.4574 25.3281ZM32.9389 29H32.807C32.5604 29 32.348 28.9121 32.1698 28.7363C31.994 28.5581 31.9062 28.3457 31.9062 28.0991V26.251C31.9062 26.002 31.994 25.7896 32.1698 25.6138C32.348 25.438 32.5604 25.3501 32.807 25.3501H32.9389C33.1879 25.3501 33.4003 25.438 33.5761 25.6138C33.7519 25.7896 33.8397 26.002 33.8397 26.251V28.0991C33.8397 28.3457 33.7519 28.5581 33.5761 28.7363C33.4003 28.9121 33.1879 29 32.9389 29ZM32.8119 25.8066C32.6776 25.8066 32.5629 25.853 32.4701 25.9482C32.3749 26.041 32.3285 26.1558 32.3285 26.29V28.0601C32.3285 28.1943 32.3749 28.3066 32.4701 28.4019C32.5629 28.4946 32.6776 28.5435 32.8119 28.5435H32.9364C33.0683 28.5435 33.183 28.4946 33.2782 28.4019C33.371 28.3066 33.4198 28.1943 33.4198 28.0601V26.29C33.4198 26.1558 33.371 26.041 33.2782 25.9482C33.183 25.853 33.0683 25.8066 32.9364 25.8066H32.8119ZM38.2429 27.0249C38.2429 27.0591 38.2307 27.0884 38.2062 27.1104C38.1818 27.1348 38.1525 27.147 38.1208 27.147H37.8693V25.4868C37.8693 25.4453 37.884 25.4111 37.9133 25.3818C37.9426 25.3525 37.9792 25.3379 38.0183 25.3379H38.2429V27.0249ZM37.3591 26.7124V27.0078C37.3591 27.042 37.3469 27.0688 37.3249 27.0908C37.3029 27.1104 37.2761 27.1201 37.2443 27.1177C37.1613 27.1177 37.0271 27.0737 36.8415 26.9883C36.6535 26.9004 36.4899 26.7759 36.3483 26.6172C36.1774 26.8003 36.009 26.9297 35.843 27.0029C35.6794 27.0737 35.4938 27.1152 35.2937 27.125V26.8149C35.2937 26.7856 35.301 26.7637 35.3181 26.7417C35.3352 26.7222 35.3571 26.71 35.384 26.7051C35.5842 26.6782 35.7355 26.6343 35.8381 26.5684C35.9406 26.5049 36.0163 26.4316 36.0676 26.3486C36.1188 26.2656 36.1433 26.1924 36.1433 26.1265V25.6919H35.406V25.4478C35.406 25.4185 35.4157 25.3916 35.4353 25.3696C35.4572 25.3501 35.4816 25.3379 35.5085 25.3379H37.2687V25.582C37.2687 25.6138 37.259 25.6382 37.2395 25.6602C37.2199 25.6821 37.1955 25.6919 37.1662 25.6919H36.5534V26.1021C36.5534 26.168 36.5754 26.2412 36.6145 26.3267C36.6535 26.4097 36.7561 26.4976 36.9172 26.5879C37.0808 26.6807 37.2272 26.7197 37.3591 26.7124ZM35.7136 27.4595L35.3864 27.4619C35.3596 27.4619 35.3376 27.4717 35.3205 27.4888C35.3034 27.5083 35.2937 27.5327 35.2937 27.5571L35.301 28.8218C35.301 28.8706 35.3205 28.9146 35.3547 28.9487C35.3937 28.9829 35.4377 29 35.4914 29L37.8864 28.9878C37.9401 28.9878 37.9841 28.9707 38.0207 28.9365C38.0573 28.8999 38.0744 28.8584 38.0744 28.8096L38.072 28.5605L35.7209 28.5703L35.7136 27.4595ZM40.3291 25.7065H38.9863C38.9668 25.7065 38.957 25.7163 38.957 25.7334V28.5776H40.3291V28.729C40.3291 28.7998 40.3047 28.8584 40.2583 28.9048C40.2095 28.9536 40.1509 28.978 40.0801 28.978H38.5078V25.5527C38.5078 25.4844 38.5322 25.4258 38.5811 25.377C38.6274 25.3306 38.686 25.3062 38.7568 25.3062H40.0801C40.1509 25.3062 40.2095 25.3306 40.2583 25.377C40.3047 25.4258 40.3291 25.5088 40.3291 25.626V25.7065ZM40.5757 26.8345V25.521C40.5757 25.4746 40.5928 25.438 40.627 25.4062C40.6587 25.3745 40.7002 25.3599 40.749 25.3599H40.9663V28.9268C40.9663 28.9487 40.959 28.9683 40.9419 28.9854C40.9248 29 40.9053 29.0073 40.8809 29.0073H40.5757V27.2471H39.9995V26.998C39.9995 26.9517 40.0166 26.915 40.0532 26.8833C40.085 26.8516 40.1265 26.8345 40.1753 26.8345H40.5757ZM41.0786 29.0073V25.5088C41.0786 25.4624 41.0957 25.4233 41.1323 25.3916C41.1665 25.3599 41.208 25.3452 41.2544 25.3452H41.4741V28.9268C41.4741 28.9487 41.4644 28.9683 41.4473 28.9854C41.4302 29 41.4106 29.0073 41.3862 29.0073H41.0786ZM42.4495 28.9487C42.3885 29.0098 42.3128 29.0415 42.2273 29.0415C42.1419 29.0415 42.0662 29.0098 42.0052 28.9487C41.9441 28.8877 41.9124 28.812 41.9124 28.7266C41.9124 28.6387 41.9441 28.563 42.0052 28.502C42.0662 28.4409 42.1419 28.4116 42.2273 28.4116C42.3128 28.4116 42.3885 28.4409 42.4495 28.502C42.5105 28.563 42.5423 28.6387 42.5423 28.7266C42.5423 28.812 42.5105 28.8877 42.4495 28.9487Z" fill="black"/>
<rect x="1.5" y="2.5" width="45" height="45" stroke="black"/>
</g>
</svg>
