<svg enable-background="new 0 0 24 24" viewBox="0 0 24 24" xmlns="http://www.w3.org/2000/svg"><g style="fill:none;stroke:#000;stroke-width:1.25;stroke-linecap:round;stroke-linejoin:round;stroke-miterlimit:10"><path d="m21 23h-18c-1.105 0-2-.896-2-2v-16c0-1.105.896-2 2-2h18c1.105 0 2 .896 2 2v16c0 1.104-.896 2-2 2z"/><path d="m6 1v5"/><path d="m18 1v5"/><path d="m14.5 11c-1.25 0-1.934.639-2.5 1.2-.566-.561-1.25-1.2-2.5-1.2-1.667 0-2.5 1.365-2.5 2.8 0 2.417 2.917 4.4 5 5.2 2.083-.8 5-2.783 5-5.2 0-1.435-.833-2.8-2.5-2.8z"/></g></svg>